<?xml version="1.0" standalone="no"?>
<!DOCTYPE svg PUBLIC "-//W3C//DTD SVG 20010904//EN"
 "http://www.w3.org/TR/2001/REC-SVG-20010904/DTD/svg10.dtd">
<svg version="1.0" xmlns="http://www.w3.org/2000/svg"
 width="805.000000pt" height="804.000000pt" viewBox="0 0 805.000000 804.000000"
 preserveAspectRatio="xMidYMid meet">

<g transform="translate(0.000000,804.000000) scale(0.100000,-0.100000)"
fill="#000000" stroke="none">
<path d="M0 4020 l0 -4020 4025 0 4025 0 0 4020 0 4020 -4025 0 -4025 0 0
-4020z m2818 3499 c86 -29 148 -88 198 -185 l39 -77 3 -976 c2 -674 0 -991 -8
-1026 -15 -71 -80 -153 -267 -335 -206 -200 -248 -239 -363 -335 -52 -44 -106
-90 -120 -102 -61 -53 -79 -68 -137 -115 -72 -59 -99 -97 -136 -188 -75 -188
-22 -410 162 -685 156 -234 511 -591 686 -690 76 -43 124 -84 153 -129 l27
-41 0 -825 0 -825 -22 -47 c-33 -73 -105 -144 -172 -169 -54 -21 -71 -22 -536
-24 -264 -2 -508 1 -543 5 -181 23 -355 189 -403 385 -10 39 -12 693 -12 2990
1 2737 2 2944 18 3005 49 188 197 350 364 396 34 9 171 12 527 13 462 1 482 0
542 -20z m3462 -45 c140 -35 310 -139 405 -248 160 -184 233 -416 206 -657
-36 -325 -268 -599 -591 -700 -65 -21 -96 -24 -230 -24 -137 0 -162 3 -219 23
-145 53 -286 156 -360 265 l-32 47 -137 0 c-75 0 -141 -4 -147 -8 -5 -4 -39
-39 -75 -77 -97 -105 -362 -385 -471 -500 -53 -55 -120 -127 -149 -160 -53
-59 -72 -79 -206 -225 -137 -150 -262 -287 -354 -390 -147 -164 -421 -449
-605 -631 l-90 -89 705 0 705 0 45 87 c51 99 158 217 251 275 143 91 335 129
491 97 270 -55 494 -265 589 -552 27 -79 37 -280 19 -370 -21 -111 -110 -278
-190 -357 -157 -158 -328 -230 -540 -230 -155 0 -202 13 -385 107 -43 22 -149
128 -203 202 -25 35 -60 100 -78 144 -18 43 -36 83 -41 88 -8 8 -1213 18
-1213 10 0 -5 73 -74 174 -165 44 -39 87 -78 96 -86 9 -8 39 -35 66 -59 240
-215 1101 -1055 1411 -1378 27 -28 87 -95 133 -147 l84 -96 165 0 164 0 34 40
c150 175 420 271 677 241 289 -34 505 -192 636 -463 60 -126 83 -248 77 -403
-10 -217 -81 -395 -218 -539 -128 -135 -268 -214 -444 -251 -335 -69 -693 104
-847 409 -64 126 -80 190 -87 345 l-6 143 -195 4 c-208 5 -262 13 -325 52 -47
29 -158 127 -231 203 -128 133 -276 290 -339 359 -38 41 -106 113 -151 160
-45 47 -96 101 -114 120 -193 207 -1217 1235 -1439 1446 -111 105 -200 214
-238 293 -25 50 -28 67 -28 156 0 93 2 104 29 150 31 52 39 60 245 254 299
279 1053 1056 1221 1257 20 24 167 186 249 274 13 14 49 54 80 90 31 35 67 76
81 90 14 14 68 75 120 135 52 61 99 115 105 122 70 80 256 255 290 272 64 32
133 41 315 38 l165 -2 6 110 c7 134 20 189 66 280 123 244 312 388 570 435 66
12 224 4 303 -16z"/>
<path d="M6035 7011 c-90 -23 -200 -125 -235 -219 -39 -103 -19 -256 43 -337
79 -103 151 -145 249 -145 208 0 379 240 313 442 -31 98 -110 196 -192 237
-43 22 -134 33 -178 22z"/>
<path d="M5175 4074 c-60 -30 -106 -80 -141 -152 -24 -48 -26 -61 -22 -135 4
-65 11 -92 33 -131 57 -103 151 -162 254 -160 102 1 175 43 238 134 42 63 56
112 51 183 -8 108 -83 224 -173 266 -66 31 -173 29 -240 -5z"/>
<path d="M6181 1449 c-83 -44 -171 -139 -194 -210 -10 -28 -17 -82 -17 -119 0
-91 48 -190 123 -253 72 -60 113 -77 190 -77 119 0 232 76 298 200 20 38 24
60 24 136 0 83 -3 95 -34 158 -37 71 -106 142 -170 172 -19 9 -62 19 -95 21
-54 4 -68 1 -125 -28z"/>
</g>
</svg>
